# Blender v2.78 (sub 0) OBJ File: 'freezetow.blend'
# www.blender.org
v 1.000000 -0.000000 1.000000
v 0.000000 0.000000 0.000000
v 0.000000 -0.000000 1.000000
v 1.000000 0.000000 0.000000
v 1.000000 -1.012762 1.000000
v 1.000000 -1.012762 -0.000000
v 0.000000 -1.012762 -0.000000
v 0.000000 -1.012762 1.000000
v 1.000000 -0.000000 1.000000
v 1.000000 -0.000000 1.000000
v 1.000000 0.000000 0.000000
v 1.000000 0.000000 0.000000
v 0.000000 0.000000 0.000000
v 0.000000 0.000000 0.000000
v 0.000000 -0.000000 1.000000
v 0.000000 -0.000000 1.000000
v 1.000000 -1.012762 1.000000
v 1.000000 -1.012762 -0.000000
v 0.000000 -1.012762 -0.000000
v 0.000000 -1.012762 1.000000
vt 0.0002 0.9998
vt 0.3332 0.6668
vt 0.0002 0.6668
vt 0.3374 0.6665
vt 0.0002 0.3335
vt 0.0002 0.6665
vt 0.3374 0.3332
vt 0.0002 0.0002
vt 0.0002 0.3332
vt 0.6750 0.3332
vt 0.3378 0.0002
vt 0.3378 0.3332
vt 0.3378 0.6707
vt 0.6707 0.3335
vt 0.3378 0.3335
vt 0.3332 0.9998
vt 0.3374 0.3335
vt 0.3374 0.0002
vt 0.6750 0.0002
vt 0.6707 0.6707
vn 0.0000 1.0000 0.0000
vn 1.0000 -0.0000 0.0000
vn 0.0000 0.0000 -1.0000
vn 0.0000 -0.0000 1.0000
vn -1.0000 0.0000 0.0000
s 1
f 11/1/1 15/2/1 9/3/1
f 17/4/2 12/5/2 10/6/2
f 6/7/3 14/8/3 4/9/3
f 8/10/4 1/11/4 16/12/4
f 7/13/5 3/14/5 2/15/5
f 11/1/1 13/16/1 15/2/1
f 17/4/2 18/17/2 12/5/2
f 6/7/3 19/18/3 14/8/3
f 8/10/4 5/19/4 1/11/4
f 7/13/5 20/20/5 3/14/5
